<?xml version="1.0" encoding="UTF-8"?>
<svg fill="none" viewBox="0 0 456 456" xmlns="http://www.w3.org/2000/svg">
<g clip-path="url(#a)">
<path d="m227.56 455.11c125.68 0 227.56-101.88 227.56-227.56s-101.88-227.56-227.56-227.56-227.56 101.88-227.56 227.56 101.88 227.56 227.56 227.56z" fill="#E24C4B"/>
<path d="m331.38 331.38c-8.533 8.533-22.756 8.533-31.289 0l-72.533-72.533-72.533 72.533c-8.533 8.533-22.756 8.533-31.289 0s-8.533-22.756 0-31.289l72.533-72.533-72.533-72.533c-8.533-8.533-8.533-22.756 0-31.289s22.756-8.533 31.289 0l72.533 72.533 72.533-72.533c8.533-8.533 22.756-8.533 31.289 0s8.533 22.756 0 31.289l-72.533 72.533 72.533 72.533c8.533 8.533 8.533 22.755 0 31.289z" fill="#fff"/>
</g>
<defs>
<clipPath id="a">
<rect width="455.11" height="455.11" fill="#fff"/>
</clipPath>
</defs>
</svg>
